<?xml version="1.0" encoding="utf-8"?>
<svg version="1.1" id="Layer_1" xmlns="http://www.w3.org/2000/svg" xmlns:xlink="http://www.w3.org/1999/xlink" x="0px" y="0px" viewBox="0 0 283.7 34.8" style="enable-background:new 0 0 283.7 34.8;" xml:space="preserve">
	<title>interactopus_team</title>
	<g>
		<path class="st0" d="M2.2,6.7h4.5v21.5H2.2V6.7z"/>
		<path class="st0" d="M11,6.7h4l8.6,13.8V6.7h4v21.5h-4l-8.6-13.7v13.7h-4V6.7z"/>
		<path class="st0" d="M35.8,10.8h-5.6V6.7h15.7v4.1h-5.6v17.4h-4.5V10.8z"/>
		<path class="st0" d="M48.5,6.7h12.9v4H53v4.7h6.9v3.8H53v5h8.4v4H48.5V6.7z"/>
		<path class="st0" d="M64.9,28.2V6.7h6.7c5.2,0,7.8,2.5,7.8,6.4c0,2.5-1.2,4.8-3.5,6l4.5,9.1h-4.8l-3.9-7.8h-2.3v7.8H64.9z
		 M71.5,16.6c1.8,0,3.3-1.2,3.3-3.3c0-1.7-1.1-2.8-3.3-2.8h-2.2v6.1H71.5z"/>
		<path class="st0" d="M87.8,6.7h4.7l6.7,21.5h-4.5l-1.3-4.2h-7.1l-1.3,4.2h-4.1L87.8,6.7z M92.5,20.3l-2.5-8.1l-2.4,8.1H92.5z"/>
		<path class="st0" d="M100.3,17.8c0-6.8,3.4-11.5,9.8-11.5c3,0,4.4,0.8,4.4,0.8v3.9c0,0-1.5-0.8-4-0.8c-3.9,0-5.5,3.1-5.5,7.5
		c0,4.4,1.8,6.9,5.5,6.9c2.5,0,4.1-0.9,4.1-0.9v4c0,0-1.5,0.9-4.6,0.9C104.4,28.6,100.3,25.2,100.3,17.8z"/>
		<path class="st0" d="M121.6,10.8h-5.6V6.7h15.7v4.1h-5.6v17.4h-4.5V10.8z"/>
		<path
			class="st0"
			d="M132.8,17.5c0-6.9,3.1-11.2,9.2-11.2c6.1,0,9.2,4.2,9.2,11.2c0,7-3.4,11.1-9.2,11.1
		C136.1,28.6,132.8,24.5,132.8,17.5z M146.5,17.5c0-4.6-1.2-7.2-4.4-7.2c-3.1,0-4.5,2.6-4.5,7.2s1.2,7.1,4.5,7.1
		C145.1,24.7,146.5,22.1,146.5,17.5z"/>
		<path class="st0" d="M154.6,6.7h6.6c5,0,8,2.6,8,6.8c0,4.6-3.4,7.1-8,7.1h-2.1v7.6h-4.5V6.7z M161.1,16.8c2,0,3.6-1.1,3.6-3.3
		c0-1.9-1.2-3-3.6-3h-2v6.3H161.1z"/>
		<path class="st0" d="M171.8,20.3V6.7h4.5v13.5c0,3.1,1.3,4.4,3.8,4.4c2.4,0,3.8-1.3,3.8-4.4V6.7h4.5v13.5c0,5.6-3.5,8.4-8.4,8.4
		C175.4,28.6,171.8,25.9,171.8,20.3z"/>
		<path
			class="st0"
			d="M191.9,23.8c0,0,2.6,0.8,5.2,0.8c2.5,0,3.7-1,3.7-2.5c0-1.7-1.9-2.4-4.2-3.4c-2.5-1.1-5-2.5-5-6
		c0-3.7,2.7-6.4,7.6-6.4c3,0,5,0.8,5,0.8V11c0,0-2.5-0.7-4.7-0.7c-2.1,0-3.3,0.8-3.3,2.2c0,1.5,1.5,2.3,3.7,3.1
		c2.8,1.1,5.4,2.6,5.4,6.3c0,3.6-2.5,6.7-8.4,6.7c-3.1,0-5.1-0.9-5.1-0.9V23.8z"/>
		<path class="st0" d="M215.2,22.9v-6.7h-2v-3.5h2V9.2l4.4-0.5v4h3.4v3.5h-3.4v6.7c0,1.5,0.6,2.2,2.1,2.2c0.6,0,1.2-0.1,1.2-0.1v3.3
		c0,0-1,0.3-2.5,0.3C216.8,28.6,215.2,26.7,215.2,22.9z"/>
		<path
			class="st0"
			d="M224.6,20.7c0-5.1,2.8-8.3,7.4-8.3c5,0,6.6,3.5,6.6,6.9c0,1.7-0.1,2.4-0.1,2.4h-9.4c0.2,2.4,1.8,3.6,4.5,3.6
		c2.3,0,4.3-0.8,4.3-0.8v3.1c0,0-2,0.9-5.2,0.9C227.5,28.6,224.6,25.5,224.6,20.7z M234.5,19c0-2.2-0.9-3.4-2.5-3.4
		c-1.7,0-2.6,1.1-2.8,3.4H234.5z"/>
		<path
			class="st0"
			d="M250,26.2c-0.6,0.8-2.1,2.4-4.7,2.4c-3.1,0-5-1.8-5-4.7c0-3.1,2.4-4.9,6.3-5l2.7-0.1v-0.4
		c0-1.8-0.8-2.7-3.1-2.7c-2.4,0-4.6,0.7-4.6,0.7v-3.3c0,0,2.2-0.8,5.2-0.8c5,0,7,1.8,7,5.8v6c0,1,0.5,1.2,1.4,1.2h0.3v2.8
		c0,0-0.9,0.3-2.2,0.3C251.3,28.6,250.3,27.9,250,26.2z M249.3,23.9v-2.5l-1.6,0c-2.2,0.1-3,0.8-3,2c0,1.1,0.8,1.7,1.9,1.7
		C248.4,25.2,249.3,23.9,249.3,23.9z"/>
		<path
			class="st0"
			d="M258.2,16.8c0-0.9-0.4-1.1-1.3-1.2h-0.4v-2.9c0,0,0.9-0.3,2.3-0.3c1.9,0,2.9,0.8,3.2,2.4
		c0.8-1.3,2.3-2.4,4.4-2.4c2.2,0,3.6,0.9,4.4,2.3c0,0,1.4-2.3,4.4-2.3c3.6,0,5.3,2.4,5.3,5.8v10H276v-9.5c0-1.5-0.5-2.5-2.1-2.5
		c-1.7,0-2.4,1.4-2.4,1.4c0.1,0.4,0.1,0.9,0.1,1.3v9.3h-4.4v-9.4c0-1.5-0.5-2.6-2.1-2.6c-1.5,0-2.4,1.2-2.4,1.2v10.8h-4.5V16.8z"/>
	</g>
</svg>
