<?xml version="1.0" encoding="utf-8"?>
<svg version="1.1" id="Layer_1" xmlns="http://www.w3.org/2000/svg" xmlns:xlink="http://www.w3.org/1999/xlink" x="0px" y="0px"
	 viewBox="0 0 203.4 28" style="enable-background:new 0 0 203.4 28;" xml:space="preserve">
<title>alex</title>
<g>
	<path class="st0" d="M6.3,3.6h1.6l5.9,17.3h-2.1l-1.4-4.2H3.8l-1.4,4.2h-2L6.3,3.6z M9.7,14.8L7,6.9l-2.6,7.9H9.7z"/>
	<path class="st0" d="M16.1,18.3V4.9c0-0.7-0.4-1-1.1-1c-0.1,0-0.3,0-0.4,0V2.5c0,0,0.5-0.2,1.4-0.2c1.2,0,2.1,0.5,2.1,1.9v13.6
		c0,1.2,0.4,1.7,1.4,1.7h0.1v1.4c0,0-0.5,0.2-1.2,0.2C16.9,21,16.1,20.1,16.1,18.3z"/>
	<path class="st0" d="M21.6,15c0-4.1,2.1-6.4,5.3-6.4c3.2,0,4.6,2.2,4.6,5c0,1-0.1,1.6-0.1,1.6h-7.7c0.1,2.8,1.4,4.1,4,4.1
		c1.7,0,3.2-0.6,3.2-0.6v1.6c0,0-1.3,0.6-3.5,0.6C23.5,21,21.6,18.5,21.6,15z M29.5,13.7c0.1-2.3-0.8-3.6-2.6-3.6
		c-1.7,0-2.8,1.2-3.1,3.6H29.5z"/>
	<path class="st0" d="M34.5,20.9V4.9c0-0.8-0.5-1-1.3-1.1H33V2.5c0,0,0.5-0.2,1.4-0.2c1.2,0,2.1,0.5,2.1,1.9v9.8h1.1l4.1-5.1h2.2
		l-4.6,5.6c1.3,1.7,4.9,6.4,4.9,6.4h-2.5l-4.1-5.3h-1.1v5.3H34.5z"/>
	<path class="st0" d="M45.5,20.4v-1.6c0,0,1.5,0.6,3.2,0.6c1.8,0,2.8-0.6,2.8-1.8c0-0.9-0.6-1.4-2.5-2c-1.8-0.5-3.5-1.3-3.5-3.6
		c0-2,1.7-3.3,4.4-3.3c1.8,0,2.8,0.5,2.8,0.5v1.6c0,0-1.2-0.5-2.8-0.5c-1.8,0-2.5,0.7-2.5,1.7c0,1,0.8,1.5,2.5,2
		c2.5,0.7,3.6,1.8,3.6,3.5c0,2.4-1.9,3.6-4.7,3.6C46.8,21,45.5,20.4,45.5,20.4z"/>
	<path class="st0" d="M62.4,19.3C61.8,20,60.6,21,58.8,21c-2.3,0-3.7-1.3-3.7-3.3c0-2.6,2-3.7,5.3-3.9l1.9-0.1v-0.6
		c0-1.9-0.5-2.8-2.5-2.8c-1.9,0-3.6,0.6-3.6,0.6V9.3c0,0,1.4-0.7,3.8-0.7c2.9,0,4.4,1.2,4.4,3.7v6c0,0.7,0.5,1.1,1.4,1.1h0.1v1.4
		c0,0-0.5,0.2-1.4,0.2C63.4,21,62.7,20.6,62.4,19.3z M62.3,18v-2.8l-1.6,0.1c-2.7,0.1-3.6,0.9-3.6,2.3c0,1.2,0.8,1.8,1.9,1.8
		C61.2,19.4,62.3,18,62.3,18z"/>
	<path class="st0" d="M68.7,11.3c0-0.8-0.5-1-1.4-1.1h-0.2V8.9c0,0,0.5-0.2,1.4-0.2c1.2,0,1.9,0.5,2.1,1.7c0,0,1.3-1.7,3.8-1.7
		c2.8,0,4.1,1.8,4.1,4.8v7.4h-2v-7.4c0-1.9-0.9-3-2.7-3c-2.1,0-3.1,1.3-3.1,1.3v9.2h-2V11.3z"/>
	<path class="st0" d="M89.9,19.3c0,0-1.1,1.7-3.4,1.7c-3.8,0-4.9-2.9-4.9-6c0-3,1.2-6.3,5.2-6.3c1.4,0,2.4,0.6,3,1.1V4.9
		c0-0.8-0.5-1-1.3-1.1h-0.1V2.5c0,0,0.5-0.2,1.4-0.2c1.2,0,2.1,0.5,2.1,1.9v14.3c0,0.8,0.6,1,1.4,1h0.1v1.4c0,0-0.5,0.2-1.4,0.2
		C90.9,21,90.2,20.5,89.9,19.3z M89.7,17.8v-6.6c0,0-1-0.8-2.7-0.8c-2.1,0-3.3,1.7-3.3,4.6c0,2.8,1.1,4.3,3.2,4.3
		C88.7,19.3,89.7,17.8,89.7,17.8z"/>
	<path class="st0" d="M96.4,11.3c0-0.8-0.6-1.1-1.5-1.1h0V8.9c0,0,0.5-0.2,1.4-0.2c1,0,1.8,0.3,2.1,1.7c0.8-1.2,2-1.7,2.8-1.7
		c0.7,0,1.1,0.2,1.1,0.2v1.8c0,0-0.5-0.1-1.2-0.1c-1.2,0-2.1,0.6-2.6,1.2v9.1h-2V11.3z"/>
	<path class="st0" d="M112.2,5.5h-4.9V3.7h11.9v1.8h-4.9v15.3h-2.1V5.5z"/>
	<path class="st0" d="M121.9,11.3c0-0.7-0.5-1-1.3-1.1h-0.2V8.9c0,0,0.5-0.2,1.4-0.2c1.2,0,2.2,0.6,2.2,2.1v10.1h-2V11.3z
		 M121.5,4.7c0-0.9,0.6-1.4,1.3-1.4c0.7,0,1.3,0.5,1.3,1.4c0,0.9-0.6,1.4-1.3,1.4C122,6.1,121.5,5.6,121.5,4.7z"/>
	<path class="st0" d="M128.1,11.3c0-0.7-0.5-1-1.2-1.1h-0.3V8.9c0,0,0.5-0.2,1.4-0.2c1.2,0,1.9,0.5,2.1,1.7c0.7-1,1.8-1.7,3.2-1.7
		c1.6,0,2.7,0.7,3.4,2.2c0,0,1.1-2.2,3.6-2.2c2.7,0,3.9,1.8,3.9,4.5v7.7h-2v-7.4c0-1.7-0.5-3.1-2.3-3.1c-1.9,0-2.8,1.5-2.8,1.5
		c0.1,0.5,0.1,1,0.1,1.6v7.3h-2v-7.3c0-1.7-0.4-3.1-2.3-3.1c-1.5,0-2.6,1.2-2.6,1.2v9.2h-2V11.3z"/>
	<path class="st0" d="M147,14.8c0-3.9,2.2-6.1,5.4-6.1c3.4,0,5.4,2.3,5.4,6.1c0,3.9-2.1,6.2-5.4,6.2C149.1,21,147,18.7,147,14.8z
		 M155.8,14.8c0-2.8-1.2-4.6-3.3-4.6c-2.3,0-3.4,1.8-3.4,4.6c0,2.9,1.1,4.7,3.4,4.7C154.6,19.5,155.8,17.6,155.8,14.8z"/>
	<path class="st0" d="M161.4,10.4h-1.9V8.9h1.9V6.1c0-2,0.9-3.8,3.4-3.8c1.1,0,1.7,0.2,1.7,0.2v1.6c0,0-0.5-0.1-1.3-0.1
		c-1.2,0-1.7,0.7-1.7,2.1v2.8h2.6v1.6h-2.6v10.4h-2V10.4z"/>
	<path class="st0" d="M167.4,15c0-4.1,2.1-6.4,5.3-6.4c3.2,0,4.6,2.2,4.6,5c0,1-0.1,1.6-0.1,1.6h-7.7c0.1,2.8,1.4,4.1,4,4.1
		c1.7,0,3.2-0.6,3.2-0.6v1.6c0,0-1.3,0.6-3.5,0.6C169.3,21,167.4,18.5,167.4,15z M175.3,13.7c0.1-2.3-0.8-3.6-2.6-3.6
		c-1.7,0-2.8,1.2-3.1,3.6H175.3z"/>
	<path class="st0" d="M179.6,15c0-4.1,2.1-6.4,5.3-6.4c3.2,0,4.6,2.2,4.6,5c0,1-0.1,1.6-0.1,1.6h-7.7c0.1,2.8,1.4,4.1,4,4.1
		c1.7,0,3.2-0.6,3.2-0.6v1.6c0,0-1.3,0.6-3.5,0.6C181.5,21,179.6,18.5,179.6,15z M187.4,13.7c0.1-2.3-0.8-3.6-2.6-3.6
		c-1.7,0-2.8,1.2-3.1,3.6H187.4z"/>
	<path class="st0" d="M195.3,20.9l-4.4-12h2.1l3.3,9.2l3.3-9.2h1.9l-4.4,12H195.3z"/>
</g>
</svg>
