<?xml version="1.0" encoding="utf-8"?>
<svg version="1.1" id="Layer_1" xmlns="http://www.w3.org/2000/svg" xmlns:xlink="http://www.w3.org/1999/xlink" x="0px" y="0px" viewBox="0 0 30 30" style="enable-background:new 0 0 30 30;" xml:space="preserve">
  <title>Close</title>
  <g id="CLW8Zn.tif">
    <g>
      <g>
        <path
          class="st0"
          d="M27.8,24.9c-1,1-1.8,1.9-2.7,2.7c-3.3-3.3-6.6-6.7-9.9-10c-3.4,3.5-6.7,6.8-10.1,10.2c-1-1-1.8-1.9-2.6-2.8
				c3.3-3.2,6.6-6.5,9.9-9.8C8.9,11.7,5.6,8.4,2.2,5.1c1-0.9,1.9-1.7,2.9-2.6c3.1,3.2,6.4,6.5,9.7,9.9c3.4-3.5,6.7-6.8,10.1-10.2
				c1,1,1.8,1.9,2.6,2.8c-3.2,3.2-6.6,6.5-9.9,9.8C21.1,18.3,24.4,21.6,27.8,24.9z"/>
      </g>
    </g>
  </g>
</svg>
