<?xml version="1.0" encoding="utf-8"?>
<svg version="1.1" id="Layer_1" xmlns="http://www.w3.org/2000/svg" xmlns:xlink="http://www.w3.org/1999/xlink" x="0px" y="0px"
	 viewBox="0 0 239.8 28" style="enable-background:new 0 0 239.8 28;" xml:space="preserve">
<g>
	<path class="st0" d="M2.2,3.7H7c4.9,0,7.7,2.9,7.7,8.6c0,5.7-2.8,8.6-7.7,8.6H2.2V3.7z M7,19c3.4,0,5.6-2,5.6-6.7
		c0-4.8-2.2-6.7-5.6-6.7H4.3V19H7z"/>
	<path class="st0" d="M18.3,11.3c0-0.7-0.5-1-1.2-1.1h-0.3V8.9c0,0,0.5-0.2,1.4-0.2c1.2,0,1.9,0.5,2.1,1.7c0.7-1,1.8-1.7,3.2-1.7
		c1.6,0,2.7,0.7,3.4,2.2c0,0,1.1-2.2,3.6-2.2c2.7,0,3.9,1.8,3.9,4.5v7.7h-2v-7.4c0-1.7-0.5-3.1-2.3-3.1c-1.9,0-2.8,1.5-2.8,1.5
		c0.1,0.5,0.1,1,0.1,1.6v7.3h-2v-7.3c0-1.7-0.4-3.1-2.3-3.1c-1.5,0-2.6,1.2-2.6,1.2v9.2h-2V11.3z"/>
	<path class="st0" d="M38.4,11.3c0-0.7-0.5-1-1.3-1.1h-0.2V8.9c0,0,0.5-0.2,1.4-0.2c1.2,0,2.2,0.6,2.2,2.1v10.1h-2V11.3z M38,4.7
		c0-0.9,0.6-1.4,1.3-1.4c0.7,0,1.3,0.5,1.3,1.4c0,0.9-0.6,1.4-1.3,1.4C38.6,6.1,38,5.6,38,4.7z"/>
	<path class="st0" d="M44.9,17.4v-7h-1.9V8.9h1.9V5.7l2-0.4v3.6h2.7v1.6h-2.7v7c0,1.3,0.5,1.9,1.6,1.9c0.6,0,1-0.1,1-0.1v1.6
		c0,0-0.6,0.2-1.7,0.2C45.8,21,44.9,19.7,44.9,17.4z"/>
	<path class="st0" d="M52.7,11.3c0-0.8-0.6-1.1-1.5-1.1h0V8.9c0,0,0.5-0.2,1.4-0.2c1,0,1.8,0.3,2.1,1.7c0.8-1.2,2-1.7,2.8-1.7
		c0.7,0,1.1,0.2,1.1,0.2v1.8c0,0-0.5-0.1-1.2-0.1c-1.2,0-2.1,0.6-2.6,1.2v9.1h-2V11.3z"/>
	<path class="st0" d="M64.1,20.8l-4.4-12h2.1l3.4,9.1l3.2-9.1h1.9l-6.2,17.4h-1.9L64.1,20.8z"/>
	<path class="st0" d="M78.5,15V3.7h2.1V15c0,3,1.3,4.3,4,4.3c2.5,0,3.8-1.3,3.9-4.3V3.7h2.1V15c0,4.2-2.3,6.1-6,6.1
		C80.9,21.1,78.5,19.2,78.5,15z"/>
	<path class="st0" d="M94.5,18.3V4.9c0-0.7-0.4-1-1.1-1c-0.1,0-0.3,0-0.4,0V2.5c0,0,0.5-0.2,1.4-0.2c1.2,0,2.1,0.5,2.1,1.9v13.6
		c0,1.2,0.4,1.7,1.4,1.7H98v1.4c0,0-0.5,0.2-1.2,0.2C95.3,21,94.5,20.1,94.5,18.3z"/>
	<path class="st0" d="M101.2,11.3c0-0.7-0.5-1-1.2-1.1h-0.3V8.9c0,0,0.5-0.2,1.4-0.2c1.2,0,1.9,0.5,2.1,1.7c0.7-1,1.8-1.7,3.2-1.7
		c1.6,0,2.7,0.7,3.4,2.2c0,0,1.1-2.2,3.6-2.2c2.7,0,3.9,1.8,3.9,4.5v7.7h-2v-7.4c0-1.7-0.5-3.1-2.3-3.1c-1.9,0-2.8,1.5-2.8,1.5
		c0.1,0.5,0.1,1,0.1,1.6v7.3h-2v-7.3c0-1.7-0.4-3.1-2.3-3.1c-1.5,0-2.6,1.2-2.6,1.2v9.2h-2V11.3z"/>
	<path class="st0" d="M120.1,15c0-4.1,2.1-6.4,5.3-6.4c3.2,0,4.6,2.2,4.6,5c0,1-0.1,1.6-0.1,1.6h-7.7c0.1,2.8,1.4,4.1,4,4.1
		c1.7,0,3.2-0.6,3.2-0.6v1.6c0,0-1.3,0.6-3.5,0.6C122,21,120.1,18.5,120.1,15z M127.9,13.7c0.1-2.3-0.8-3.6-2.6-3.6
		c-1.7,0-2.8,1.2-3.1,3.6H127.9z"/>
	<path class="st0" d="M133.3,11.3c0-0.8-0.6-1.1-1.5-1.1h0V8.9c0,0,0.5-0.2,1.4-0.2c1,0,1.8,0.3,2.1,1.7c0.8-1.2,2-1.7,2.8-1.7
		c0.7,0,1.1,0.2,1.1,0.2v1.8c0,0-0.5-0.1-1.2-0.1c-1.2,0-2.1,0.6-2.6,1.2v9.1h-2V11.3z"/>
	<path class="st0" d="M140.4,14.3v-1.7h6.5v1.7H140.4z"/>
	<path class="st0" d="M152.8,6.8l-0.6,14.1h-1.9l0.8-17.2h2.4l4.9,13l4.8-13h2.3l0.8,17.2h-2l-0.6-14.1L159,19.7h-1.4L152.8,6.8z"/>
	<path class="st0" d="M169.3,14.8c0-3.9,2.2-6.1,5.4-6.1c3.4,0,5.4,2.3,5.4,6.1c0,3.9-2.1,6.2-5.4,6.2
		C171.4,21,169.3,18.7,169.3,14.8z M178.1,14.8c0-2.8-1.2-4.6-3.3-4.6c-2.3,0-3.4,1.8-3.4,4.6c0,2.9,1.1,4.7,3.4,4.7
		C176.9,19.5,178.1,17.6,178.1,14.8z"/>
	<path class="st0" d="M183.6,11.3c0-0.8-0.6-1.1-1.5-1.1h0V8.9c0,0,0.5-0.2,1.4-0.2c1,0,1.8,0.3,2.1,1.7c0.8-1.2,2-1.7,2.8-1.7
		c0.7,0,1.1,0.2,1.1,0.2v1.8c0,0-0.5-0.1-1.2-0.1c-1.2,0-2.1,0.6-2.6,1.2v9.1h-2V11.3z"/>
	<path class="st0" d="M190.9,14.8c0-3.9,2.2-6.1,5.4-6.1c3.4,0,5.4,2.3,5.4,6.1c0,3.9-2.1,6.2-5.4,6.2
		C192.9,21,190.9,18.7,190.9,14.8z M199.7,14.8c0-2.8-1.2-4.6-3.3-4.6c-2.3,0-3.4,1.8-3.4,4.6c0,2.9,1.1,4.7,3.4,4.7
		C198.5,19.5,199.7,17.6,199.7,14.8z"/>
	<path class="st0" d="M203.8,20.9v-1.5l5.9-8.9h-5.9V8.9h8v1.5l-5.9,8.9h5.9v1.6H203.8z"/>
	<path class="st0" d="M213.8,14.8c0-3.9,2.2-6.1,5.4-6.1c3.4,0,5.4,2.3,5.4,6.1c0,3.9-2.1,6.2-5.4,6.2
		C215.9,21,213.8,18.7,213.8,14.8z M222.6,14.8c0-2.8-1.2-4.6-3.3-4.6c-2.3,0-3.4,1.8-3.4,4.6c0,2.9,1.1,4.7,3.4,4.7
		C221.5,19.5,222.6,17.6,222.6,14.8z"/>
	<path class="st0" d="M230.6,20.9l-4.4-12h2.1l3.3,9.2l3.3-9.2h1.9l-4.4,12H230.6z"/>
</g>
</svg>
