<svg xmlns="http://www.w3.org/2000/svg" viewBox="0 0 86.77 111.89">
  <title>interactopus_logo</title><path
    d="M43.39,0,0,70.39H86.77Zm-.56,34.9c10.68,0,15.33,6.27,15.33,6.27S53,36.06,42.83,36.29s-14.87,6-14.87,6A18.24,18.24,0,0,1,42.83,34.9Zm.62,20.68c-12.39,0-17.9-7.71-17.9-7.71s5-7.94,17.82-7.94c13.49,0,17.84,7.39,17.84,7.39S55.84,55.58,43.45,55.58Z"/><path d="M51.81,80c.27-5.85,1.71-7.12,1.71-7.12H32.33a21.92,21.92,0,0,0,2.08,13.44c2.66,4.86,8.7,7.78,8.47,14-.24,6.51-5.31,11.55-5.31,11.55s13.63-.56,16.79-12.63C56.81,89.87,51.51,86.63,51.81,80Z"/><path d="M24.27,98.28a13.85,13.85,0,0,1-4.74-12.13,35.93,35.93,0,0,1,4.81-13.26H8a35.42,35.42,0,0,0-.66,15c1.93,10.62,9.71,14.29,13.55,15.13,6.81,1.5,10.7-2.18,10.7-2.18A11.57,11.57,0,0,1,24.27,98.28Z"/><path d="M63.13,72.89a15.8,15.8,0,0,1,4.7,5.89c2.31,6-1.62,7.86-4.62,11.32-4.3,5,0,12.48,0,12.48S62.29,97,71.53,93.1a17.59,17.59,0,0,0,9.19-9.6c2.21-6.32-.21-10.61-.21-10.61Z"/><path d="M47.93,42.93a4.38,4.38,0,1,1-8.59-1.2,17.31,17.31,0,0,0-5.09,1.94,9.36,9.36,0,0,0,18.66-.07,18,18,0,0,0-5.15-1.86A4.36,4.36,0,0,1,47.93,42.93Z"/></svg>
