<?xml version="1.0" encoding="utf-8"?>
<svg version="1.1" id="Layer_1" xmlns="http://www.w3.org/2000/svg" xmlns:xlink="http://www.w3.org/1999/xlink" x="0px" y="0px"
	 viewBox="0 0 199.1 28" style="enable-background:new 0 0 199.1 28;" xml:space="preserve">
<g class="st0">
	<path class="st1" d="M4.3,6.8L3.7,20.9H1.8L2.6,3.7H5l4.9,13l4.8-13H17l0.8,17.2h-2L15.2,6.8l-4.7,12.9H9L4.3,6.8z"/>
	<path class="st1" d="M27.6,19.3C27,20,25.9,21,24,21c-2.3,0-3.7-1.3-3.7-3.3c0-2.6,2-3.7,5.3-3.9l1.9-0.1v-0.6
		c0-1.9-0.5-2.8-2.5-2.8c-1.9,0-3.6,0.6-3.6,0.6V9.3c0,0,1.4-0.7,3.8-0.7c2.9,0,4.4,1.2,4.4,3.7v6c0,0.7,0.5,1.1,1.4,1.1h0.1v1.4
		c0,0-0.5,0.2-1.4,0.2C28.6,21,28,20.6,27.6,19.3z M27.5,18v-2.8l-1.6,0.1c-2.7,0.1-3.6,0.9-3.6,2.3c0,1.2,0.8,1.8,1.9,1.8
		C26.4,19.4,27.5,18,27.5,18z"/>
	<path class="st1" d="M34,11.3c0-0.8-0.6-1.1-1.5-1.1h0V8.9c0,0,0.5-0.2,1.4-0.2c1,0,1.8,0.3,2.1,1.7c0.8-1.2,2-1.7,2.8-1.7
		c0.7,0,1.1,0.2,1.1,0.2v1.8c0,0-0.5-0.1-1.2-0.1c-1.2,0-2.1,0.6-2.6,1.2v9.1h-2V11.3z"/>
	<path class="st1" d="M42.7,11.3c0-0.7-0.5-1-1.3-1.1h-0.2V8.9c0,0,0.5-0.2,1.4-0.2c1.2,0,2.2,0.6,2.2,2.1v10.1h-2V11.3z M42.2,4.7
		c0-0.9,0.6-1.4,1.3-1.4c0.7,0,1.3,0.5,1.3,1.4c0,0.9-0.6,1.4-1.3,1.4C42.8,6.1,42.2,5.6,42.2,4.7z"/>
	<path class="st1" d="M54.6,19.3C54,20,52.8,21,51,21c-2.3,0-3.7-1.3-3.7-3.3c0-2.6,2-3.7,5.3-3.9l1.9-0.1v-0.6
		c0-1.9-0.5-2.8-2.5-2.8c-1.9,0-3.6,0.6-3.6,0.6V9.3c0,0,1.4-0.7,3.8-0.7c2.9,0,4.4,1.2,4.4,3.7v6c0,0.7,0.5,1.1,1.4,1.1h0.1v1.4
		c0,0-0.5,0.2-1.4,0.2C55.6,21,54.9,20.6,54.6,19.3z M54.5,18v-2.8l-1.6,0.1c-2.7,0.1-3.6,0.9-3.6,2.3c0,1.2,0.8,1.8,1.9,1.8
		C53.4,19.4,54.5,18,54.5,18z"/>
	<path class="st1" d="M68.5,6.8l-0.6,14.1h-1.9l0.8-17.2h2.4l4.9,13l4.8-13h2.3L82,20.9h-2L79.4,6.8l-4.7,12.9h-1.4L68.5,6.8z"/>
	<path class="st1" d="M86.2,11.3c0-0.7-0.5-1-1.3-1.1h-0.2V8.9c0,0,0.5-0.2,1.4-0.2c1.2,0,2.2,0.6,2.2,2.1v10.1h-2V11.3z M85.8,4.7
		c0-0.9,0.6-1.4,1.3-1.4c0.7,0,1.3,0.5,1.3,1.4c0,0.9-0.6,1.4-1.3,1.4C86.3,6.1,85.8,5.6,85.8,4.7z"/>
	<path class="st1" d="M92.4,11.3c0-0.8-0.6-1.1-1.5-1.1h0V8.9c0,0,0.5-0.2,1.4-0.2c1,0,1.8,0.3,2.1,1.7c0.8-1.2,2-1.7,2.8-1.7
		c0.7,0,1.1,0.2,1.1,0.2v1.8c0,0-0.5-0.1-1.2-0.1c-1.2,0-2.1,0.6-2.6,1.2v9.1h-2V11.3z"/>
	<path class="st1" d="M99.8,20.9v-1.5l5.9-8.9h-5.9V8.9h8v1.5l-5.9,8.9h5.9v1.6H99.8z"/>
	<path class="st1" d="M116.8,19.3c-0.6,0.7-1.8,1.8-3.6,1.8c-2.3,0-3.7-1.3-3.7-3.3c0-2.6,2-3.7,5.3-3.9l1.9-0.1v-0.6
		c0-1.9-0.5-2.8-2.5-2.8c-1.9,0-3.6,0.6-3.6,0.6V9.3c0,0,1.4-0.7,3.8-0.7c2.9,0,4.4,1.2,4.4,3.7v6c0,0.7,0.5,1.1,1.4,1.1h0.1v1.4
		c0,0-0.5,0.2-1.4,0.2C117.8,21,117.2,20.6,116.8,19.3z M116.7,18v-2.8l-1.6,0.1c-2.7,0.1-3.6,0.9-3.6,2.3c0,1.2,0.8,1.8,1.9,1.8
		C115.6,19.4,116.7,18,116.7,18z"/>
	<path class="st1" d="M123.2,11.3c0-0.7-0.5-1-1.2-1.1h-0.3V8.9c0,0,0.5-0.2,1.4-0.2c1.2,0,1.9,0.5,2.1,1.7c0.7-1,1.8-1.7,3.2-1.7
		c1.6,0,2.7,0.7,3.4,2.2c0,0,1.1-2.2,3.6-2.2c2.7,0,3.9,1.8,3.9,4.5v7.7h-2v-7.4c0-1.7-0.5-3.1-2.3-3.1c-1.9,0-2.8,1.5-2.8,1.5
		c0.1,0.5,0.1,1,0.1,1.6v7.3h-2v-7.3c0-1.7-0.4-3.1-2.3-3.1c-1.5,0-2.6,1.2-2.6,1.2v9.2h-2V11.3z"/>
	<path class="st1" d="M142.1,15c0-4.1,2.1-6.4,5.3-6.4c3.2,0,4.6,2.2,4.6,5c0,1-0.1,1.6-0.1,1.6h-7.7c0.1,2.8,1.4,4.1,4,4.1
		c1.7,0,3.2-0.6,3.2-0.6v1.6c0,0-1.3,0.6-3.5,0.6C144,21,142.1,18.5,142.1,15z M149.9,13.7c0.1-2.3-0.8-3.6-2.6-3.6
		c-1.7,0-2.8,1.2-3.1,3.6H149.9z"/>
	<path class="st1" d="M155.5,17.4v-7h-1.9V8.9h1.9V5.7l2-0.4v3.6h2.7v1.6h-2.7v7c0,1.3,0.5,1.9,1.6,1.9c0.6,0,1-0.1,1-0.1v1.6
		c0,0-0.6,0.2-1.7,0.2C156.4,21,155.5,19.7,155.5,17.4z"/>
	<path class="st1" d="M162,14.8c0-3.9,2.2-6.1,5.4-6.1c3.4,0,5.4,2.3,5.4,6.1c0,3.9-2.1,6.2-5.4,6.2C164,21,162,18.7,162,14.8z
		 M170.8,14.8c0-2.8-1.2-4.6-3.3-4.6c-2.3,0-3.4,1.8-3.4,4.6c0,2.9,1.1,4.7,3.4,4.7C169.6,19.5,170.8,17.6,170.8,14.8z"/>
	<path class="st1" d="M178.7,20.9l-4.4-12h2.1l3.3,9.2l3.3-9.2h1.9l-4.4,12H178.7z"/>
	<path class="st1" d="M193.1,19.3c-0.6,0.7-1.8,1.8-3.6,1.8c-2.3,0-3.7-1.3-3.7-3.3c0-2.6,2-3.7,5.3-3.9l1.9-0.1v-0.6
		c0-1.9-0.5-2.8-2.5-2.8c-1.9,0-3.6,0.6-3.6,0.6V9.3c0,0,1.4-0.7,3.8-0.7c2.9,0,4.4,1.2,4.4,3.7v6c0,0.7,0.5,1.1,1.4,1.1h0.1v1.4
		c0,0-0.5,0.2-1.4,0.2C194.1,21,193.5,20.6,193.1,19.3z M193,18v-2.8l-1.6,0.1c-2.7,0.1-3.6,0.9-3.6,2.3c0,1.2,0.8,1.8,1.9,1.8
		C191.9,19.4,193,18,193,18z"/>
</g>
</svg>
