<?xml version="1.0" encoding="utf-8"?>
<svg version="1.1" id="Layer_1" xmlns="http://www.w3.org/2000/svg" xmlns:xlink="http://www.w3.org/1999/xlink" x="0px" y="0px"
	 width="43px" height="33.6px" viewBox="0 0 43 33.6" style="enable-background:new 0 0 43 33.6;" xml:space="preserve">
<g>
	<path class="st0" d="M18.2,11.4l-5.6,4.4l-0.1-1.9c-0.3-6,2-9.1,7.2-9.3c3-0.2,6.5,0.5,8.2,1.3l-0.2-4.6c-1.4-0.8-4.8-1.4-8.1-1.2
		C11.6,0.5,7.3,5.7,7.7,14.2l0.1,1.9l-6.1-3.8L0,15.1l8.8,6.7l3.3-0.2l8.1-7.6L18.2,11.4z"/>
	<path class="st0" d="M43,18.6l-8.8-6.7l-3.3,0.2l-8.1,7.6l2,2.6l5.6-4.4l0.1,1.9c0.3,6-2,9-7.2,9.3c-3,0.2-6.5-0.5-8.2-1.3l0.2,4.6
		c1.4,0.8,4.8,1.4,8.2,1.2c7.9-0.4,12.2-5.7,11.8-14.1l-0.1-1.9l6.2,3.8L43,18.6z"/>
</g>
</svg>
