<?xml version="1.0" encoding="utf-8"?>
<svg version="1.1" id="Layer_1" xmlns="http://www.w3.org/2000/svg" xmlns:xlink="http://www.w3.org/1999/xlink" x="0px" y="0px" viewBox="0 0 77 47.3" style="enable-background:new 0 0 77 47.3;" xml:space="preserve">
	<g>
		<path d="M77,18c0-4.5-3.5-8.1-7.7-8.1h-21C48.1,4.4,43.8,0,38.5,0c-5.3,0-9.6,4.4-9.7,9.9h-21C3.5,9.9,0,13.5,0,18S3.5,26,7.7,26
		h61.5C73.5,26,77,22.4,77,18"/>
		<g>
			<path d="M3.5,42.7v-3.2H2.6v-1.7h0.9v-1.5h2.4v1.5h1.4v1.7H5.9v2.9c0,0.5,0.3,0.7,0.7,0.7c0.3,0,0.5,0,0.7-0.1v1.8
			C7,45,6.6,45.1,6,45.1C4.4,45.1,3.5,44.3,3.5,42.7z"/>
			<path d="M10.7,44.2l-2.8-6.4h2.6l1.5,3.8l1.4-3.8h2.3l-3.8,9.5H9.5L10.7,44.2z"/>
			<path
				d="M16.4,37.9h2.4v1.1c0.4-0.7,1.1-1.2,2.2-1.2c1.7,0,3,1.2,3,3.7v0.1c0,2.4-1.3,3.7-3,3.7c-1.1,0-1.8-0.5-2.2-1.2v3.4h-2.4
			V37.9z M21.6,41.5v-0.1c0-1.2-0.5-1.8-1.4-1.8c-0.9,0-1.4,0.6-1.4,1.8v0.1c0,1.2,0.5,1.8,1.4,1.8C21.1,43.3,21.6,42.6,21.6,41.5z"/>
			<path d="M24.8,41.5v-0.1c0-2.3,1.7-3.7,3.8-3.7c1.9,0,3.6,1.1,3.6,3.7V42h-5c0.1,0.9,0.6,1.5,1.5,1.5c0.8,0,1.1-0.4,1.2-0.8h2.3
			c-0.2,1.6-1.5,2.5-3.6,2.5C26.4,45.1,24.8,43.8,24.8,41.5z M29.9,40.6c0-0.9-0.5-1.3-1.2-1.3c-0.7,0-1.2,0.5-1.4,1.3H29.9z"/>
			<path d="M33.2,43.7c0-0.8,0.6-1.4,1.4-1.4c0.8,0,1.4,0.6,1.4,1.4c0,0.8-0.6,1.4-1.4,1.4C33.8,45.1,33.2,44.5,33.2,43.7z"/>
			<path d="M37.6,42.7v-3.2h-0.9v-1.7h0.9v-1.5H40v1.5h1.4v1.7H40v2.9c0,0.5,0.3,0.7,0.7,0.7c0.3,0,0.5,0,0.7-0.1v1.8
			c-0.3,0.1-0.8,0.2-1.3,0.2C38.5,45.1,37.6,44.3,37.6,42.7z"/>
			<path d="M42.2,41.5v-0.1c0-2.3,1.7-3.7,3.9-3.7c2.2,0,3.9,1.4,3.9,3.7v0.1c0,2.3-1.7,3.7-3.9,3.7S42.2,43.8,42.2,41.5z M47.4,41.5
			v-0.1c0-1.2-0.5-1.9-1.4-1.9c-0.9,0-1.4,0.6-1.4,1.8v0.1c0,1.2,0.5,1.9,1.4,1.9C47,43.3,47.4,42.6,47.4,41.5z"/>
			<path
				d="M50.6,41.5v-0.1c0-2.4,1.3-3.7,3-3.7c1.1,0,1.8,0.5,2.2,1.2v-4.1h2.4V45h-2.4v-1.2c-0.4,0.7-1.1,1.3-2.2,1.3
			C52,45.1,50.6,43.9,50.6,41.5z M55.9,41.4v-0.1c0-1.2-0.5-1.8-1.4-1.8c-0.9,0-1.4,0.6-1.4,1.8v0.1c0,1.2,0.5,1.8,1.4,1.8
			C55.4,43.3,55.9,42.6,55.9,41.4z"/>
			<path
				d="M59.3,43c0-1.7,1.4-2.3,3.8-2.3h0.7v-0.2c0-0.7-0.2-1.1-0.9-1.1c-0.7,0-0.9,0.4-1,0.8h-2.3c0.1-1.7,1.5-2.6,3.4-2.6
			c2,0,3.2,0.8,3.2,2.7V45h-2.4v-0.8c-0.3,0.5-1,1-2.1,1C60.4,45.1,59.3,44.5,59.3,43z M63.7,42.5V42h-0.6c-1,0-1.4,0.2-1.4,0.8
			c0,0.4,0.3,0.7,0.8,0.7C63.2,43.5,63.7,43.1,63.7,42.5z"/>
			<path d="M69.5,44.2l-2.8-6.4h2.6l1.5,3.8l1.4-3.8h2.3l-3.8,9.5h-2.3L69.5,44.2z"/>
		</g>
	</g>
</svg>
