<?xml version="1.0" encoding="utf-8"?>
<svg version="1.1" id="Layer_1" xmlns="http://www.w3.org/2000/svg" xmlns:xlink="http://www.w3.org/1999/xlink" x="0px" y="0px"
	 viewBox="0 0 200.3 27.5" style="enable-background:new 0 0 200.3 27.5;" xml:space="preserve">
<title>vadim</title>
<g class="st0">
	<path class="st1" d="M6.3,20.7L0.4,3.4h2.1l4.7,14l4.6-14h2L7.9,20.7H6.3z"/>
	<path class="st1" d="M21.2,19c-0.6,0.7-1.8,1.8-3.6,1.8c-2.3,0-3.7-1.3-3.7-3.3c0-2.6,2-3.7,5.3-3.9l1.9-0.1v-0.6
		c0-1.9-0.5-2.8-2.5-2.8c-1.9,0-3.6,0.6-3.6,0.6V9.1c0,0,1.4-0.7,3.8-0.7c2.9,0,4.4,1.2,4.4,3.7v6c0,0.7,0.5,1.1,1.4,1.1h0.1v1.4
		c0,0-0.5,0.2-1.4,0.2C22.2,20.8,21.5,20.3,21.2,19z M21.1,17.8V15l-1.6,0.1c-2.7,0.1-3.6,0.9-3.6,2.3c0,1.2,0.8,1.8,1.9,1.8
		C20,19.1,21.1,17.8,21.1,17.8z"/>
	<path class="st1" d="M34.8,19.1c0,0-1.1,1.7-3.4,1.7c-3.8,0-4.9-2.9-4.9-6c0-3,1.2-6.3,5.2-6.3c1.4,0,2.4,0.6,3,1.1V4.7
		c0-0.8-0.5-1-1.3-1.1h-0.1V2.2c0,0,0.5-0.2,1.4-0.2c1.2,0,2.1,0.5,2.1,1.9v14.3c0,0.8,0.6,1,1.4,1h0.1v1.4c0,0-0.5,0.2-1.4,0.2
		C35.8,20.8,35.1,20.3,34.8,19.1z M34.7,17.5V11c0,0-1-0.8-2.7-0.8c-2.1,0-3.3,1.7-3.3,4.6c0,2.8,1.1,4.3,3.2,4.3
		C33.6,19.1,34.7,17.5,34.7,17.5z"/>
	<path class="st1" d="M41.4,11c0-0.7-0.5-1-1.3-1.1h-0.2V8.6c0,0,0.5-0.2,1.4-0.2c1.2,0,2.2,0.6,2.2,2.1v10.1h-2V11z M40.9,4.5
		c0-0.9,0.6-1.4,1.3-1.4c0.7,0,1.3,0.5,1.3,1.4c0,0.9-0.6,1.4-1.3,1.4C41.5,5.9,40.9,5.3,40.9,4.5z"/>
	<path class="st1" d="M47.5,11c0-0.7-0.5-1-1.2-1.1H46V8.6c0,0,0.5-0.2,1.4-0.2c1.2,0,1.9,0.5,2.1,1.7c0.7-1,1.8-1.7,3.2-1.7
		c1.6,0,2.7,0.7,3.4,2.2c0,0,1.1-2.2,3.6-2.2c2.7,0,3.9,1.8,3.9,4.5v7.7h-2v-7.4c0-1.7-0.5-3.1-2.3-3.1c-1.9,0-2.8,1.5-2.8,1.5
		c0.1,0.5,0.1,1,0.1,1.6v7.3h-2v-7.3c0-1.7-0.4-3.1-2.3-3.1c-1.5,0-2.6,1.2-2.6,1.2v9.2h-2V11z"/>
	<path class="st1" d="M75.1,6.5l-0.6,14.1h-1.9l0.8-17.2h2.4l4.9,13l4.8-13h2.3l0.8,17.2h-2L86,6.5l-4.7,12.9h-1.4L75.1,6.5z"/>
	<path class="st1" d="M92.8,11c0-0.7-0.5-1-1.3-1.1h-0.2V8.6c0,0,0.5-0.2,1.4-0.2c1.2,0,2.2,0.6,2.2,2.1v10.1h-2V11z M92.4,4.5
		C92.4,3.6,93,3,93.7,3C94.4,3,95,3.6,95,4.4c0,0.9-0.6,1.4-1.3,1.4C93,5.9,92.4,5.3,92.4,4.5z"/>
	<path class="st1" d="M99,11c0-0.8-0.6-1.1-1.5-1.1h0V8.6c0,0,0.5-0.2,1.4-0.2c1,0,1.8,0.3,2.1,1.7c0.8-1.2,2-1.7,2.8-1.7
		c0.7,0,1.1,0.2,1.1,0.2v1.8c0,0-0.5-0.1-1.2-0.1c-1.2,0-2.1,0.6-2.6,1.2v9.1h-2V11z"/>
	<path class="st1" d="M111.3,26.1c-4,0-5.2-1.8-5.2-3.5c0-1.4,0.9-2.4,2-2.9c-0.6-0.3-1-0.9-1-1.8c0-0.6,0.5-1.4,1.2-1.9
		c-1.2-0.7-2-2-2-3.5c0-2.2,1.6-4.2,4.6-4.2c0.9,0,1.7,0.2,2.3,0.4l3.5-0.2v1.5h-2c0.5,0.7,0.8,1.6,0.8,2.5c0,2.2-1.8,4.1-4.6,4.1
		c-0.5,0-1-0.1-1.4-0.2c-0.5,0.3-0.7,0.6-0.7,1c0,0.7,0.6,1,1.5,1.1c0.7,0.1,1.6,0.2,2.4,0.3c1.9,0.3,3.8,0.8,3.8,3.4
		C116.5,24.6,114.1,26.1,111.3,26.1z M114.6,22.5c0-1.5-1.3-1.8-2.7-2c-0.8-0.1-1.7-0.1-2.5-0.3c-0.9,0.4-1.5,1.2-1.5,2.2
		c0,1.3,1,2.3,3.6,2.3C113.1,24.6,114.6,23.9,114.6,22.5z M113.5,12.6c0-1.7-1-2.8-2.6-2.8c-1.7,0-2.6,1.1-2.6,2.8
		c0,1.7,1.1,2.8,2.6,2.8C112.4,15.3,113.5,14.3,113.5,12.6z"/>
	<path class="st1" d="M118.4,14.5c0-3.9,2.2-6.1,5.4-6.1c3.4,0,5.4,2.3,5.4,6.1c0,3.9-2.1,6.2-5.4,6.2
		C120.5,20.8,118.4,18.4,118.4,14.5z M127.2,14.5c0-2.8-1.2-4.6-3.3-4.6c-2.3,0-3.4,1.8-3.4,4.6c0,2.9,1.1,4.7,3.4,4.7
		C126,19.2,127.2,17.4,127.2,14.5z"/>
	<path class="st1" d="M132.7,11c0-0.8-0.6-1.1-1.5-1.1h0V8.6c0,0,0.5-0.2,1.4-0.2c1,0,1.8,0.3,2.1,1.7c0.8-1.2,2-1.7,2.8-1.7
		c0.7,0,1.1,0.2,1.1,0.2v1.8c0,0-0.5-0.1-1.2-0.1c-1.2,0-2.1,0.6-2.6,1.2v9.1h-2V11z"/>
	<path class="st1" d="M140,14.5c0-3.9,2.2-6.1,5.4-6.1c3.4,0,5.4,2.3,5.4,6.1c0,3.9-2.1,6.2-5.4,6.2C142,20.8,140,18.4,140,14.5z
		 M148.8,14.5c0-2.8-1.2-4.6-3.3-4.6c-2.3,0-3.4,1.8-3.4,4.6c0,2.9,1.1,4.7,3.4,4.7C147.6,19.2,148.8,17.4,148.8,14.5z"/>
	<path class="st1" d="M161.6,19.1c0,0-1.1,1.7-3.4,1.7c-3.8,0-4.9-2.9-4.9-6c0-3,1.2-6.3,5.2-6.3c1.4,0,2.4,0.6,3,1.1V4.7
		c0-0.8-0.5-1-1.3-1.1H160V2.2c0,0,0.5-0.2,1.4-0.2c1.2,0,2.1,0.5,2.1,1.9v14.3c0,0.8,0.6,1,1.4,1h0.1v1.4c0,0-0.5,0.2-1.4,0.2
		C162.6,20.8,161.9,20.3,161.6,19.1z M161.4,17.5V11c0,0-1-0.8-2.7-0.8c-2.1,0-3.3,1.7-3.3,4.6c0,2.8,1.1,4.3,3.2,4.3
		C160.4,19.1,161.4,17.5,161.4,17.5z"/>
	<path class="st1" d="M167,20.2v-1.6c0,0,1.5,0.6,3.2,0.6c1.8,0,2.8-0.6,2.8-1.8c0-0.9-0.6-1.4-2.5-2c-1.8-0.5-3.5-1.3-3.5-3.6
		c0-2,1.7-3.3,4.4-3.3c1.8,0,2.8,0.5,2.8,0.5v1.6c0,0-1.2-0.5-2.8-0.5c-1.8,0-2.5,0.7-2.5,1.7c0,1,0.8,1.5,2.5,2
		c2.5,0.7,3.6,1.8,3.6,3.5c0,2.4-1.9,3.6-4.7,3.6C168.3,20.8,167,20.2,167,20.2z"/>
	<path class="st1" d="M177.8,20.6V4.7c0-0.8-0.5-1-1.3-1.1h-0.2V2.2c0,0,0.5-0.2,1.4-0.2c1.2,0,2.1,0.5,2.1,1.9v9.8h1.1l4.1-5.1h2.2
		l-4.6,5.6c1.3,1.7,4.9,6.4,4.9,6.4H185l-4.1-5.3h-1.1v5.3H177.8z"/>
	<path class="st1" d="M192.7,20.6l-4.4-12h2.1l3.4,9.1l3.2-9.1h1.9L192.7,26h-1.9L192.7,20.6z"/>
</g>
</svg>
